<svg width="256px" height="256px" viewBox="0 0 48 48" xmlns="http://www.w3.org/2000/svg" fill="#000000">
  <style>
    /* Mengatur transform-origin untuk semua grup yang dianimasikan */
    .icon-group, .bubble-main, .bubble-shadow, .dot {
      transform-box: fill-box;
      transform-origin: 50% 50%;
    }

    /* Animasi 1: Efek mengambang (hover) untuk seluruh ikon */
    .icon-group {
      animation: hoverFloat 4s ease-in-out infinite;
    }

    @keyframes hoverFloat {
      0%   { transform: translateY(0px); }
      50%  { transform: translateY(-2px); }
      100% { transform: translateY(0px); }
    }

    /* Animasi 2: Denyut cahaya 'futuristik' untuk gelembung utama */
    .bubble-main {
      animation: pulseGlow 3.5s ease-in-out infinite;
    }

    @keyframes pulseGlow {
      0%   { 
        transform: scale(1); 
        filter: drop-shadow(0 4px 6px rgba(0, 163, 255, 0.4)); 
      }
      50%  { 
        transform: scale(1.03); 
        filter: drop-shadow(0 6px 12px rgba(0, 163, 255, 0.7)); 
      }
      100% { 
        transform: scale(1); 
        filter: drop-shadow(0 4px 6px rgba(0, 163, 255, 0.4)); 
      }
    }

    /* Animasi 3: Denyut 'gema' untuk bayangan */
    .bubble-shadow {
      animation: shadowPulse 3.5s ease-in-out infinite;
      animation-delay: 0.2s; /* Sedikit delay agar tidak sinkron sempurna */
    }

    @keyframes shadowPulse {
      0%   { opacity: 0.2; transform: scale(1); }
      50%  { opacity: 0.4; transform: scale(1.02); }
      100% { opacity: 0.2; transform: scale(1); }
    }

    /* Animasi 4: Efek 'processing' untuk titik-titik */
    .dot {
      animation: dotPulse 1.5s ease-in-out infinite;
    }
    
    .dot:nth-child(2) {
      animation-delay: 0.5s; /* Delay untuk titik kedua */
    }

    @keyframes dotPulse {
      0%, 100% { 
        opacity: 0.4; 
        transform: translateY(0);
      }
      50% { 
        opacity: 1; 
        transform: translateY(-1px); /* Sedikit naik saat terang */
      }
    }

  </style>

  <defs>
    <linearGradient id="linear-gradient" x1="0.5" x2="0.5" y2="1" gradientUnits="objectBoundingBox">
      <stop offset="0" stop-color="#00a3ff"/>
      <stop offset="1" stop-color="#005db3"/>
    </linearGradient>
    <clipPath id="clip-Chat">
      <rect width="48" height="48"/>
    </clipPath>
  </defs>

  <g clip-path="url(#clip-Chat)">
    <rect width="48" height="48" fill="rgba(255,255,255,0)"/>
    
    <g class="icon-group" transform="translate(4 9)">
      
      <g class="bubble-shadow" transform="translate(0 0)" fill="rgba(125,204,255,0.2)">
        <path d="M8.4,22.565C3.4,20.536,0,16.566,0,12,0,5.373,7.163,0,16,0S32,5.373,32,12,24.836,24,16,24a21.252,21.252,0,0,1-3.25-.248A23.676,23.676,0,0,1,5,26,8.375,8.375,0,0,0,8.4,22.565Z"/>
        <path d="M 7.02259 25.17086 C 8.58051 24.85845 10.74137 24.2889 12.50873 23.31465 L 12.65807 23.23233 L 12.82659 23.25841 C 13.86359 23.41892 14.93135 23.5 16 23.5 C 24.54704 23.5 31.5 18.34115 31.5 12 C 31.5 5.65874 24.54704 0.5 16 0.5 C 7.45336 0.5 0.5 5.65874 0.5 12 C 0.5 16.20769 3.60092 20.07836 8.59264 22.1012 L 9.08855 22.30217 L 8.85447 22.78334 C 8.36568 23.78806 7.67259 24.5823 7.02259 25.17086 M 5 26 C 5 26 7.29048 24.85522 8.40485 22.5646 C 3.39971 20.53632 0 16.56588 0 12 C 0 5.373 7.1631 0 16 0 C 24.8364 0 32 5.373 32 12 C 32 18.6273 24.8364 24 16 24 C 14.88639 24 13.79975 23.91499 12.75011 23.75253 C 9.48691 25.55136 5 26 5 26 Z" fill="rgba(255,255,255,0.3)"/>
      </g>

      <g class="bubble-main" transform="translate(40 8)" fill="url(#linear-gradient)">
        <path d="M-8.219,20.917C-3.356,19.141,0,15.368,0,11,0,4.925-6.492,0-14.5,0S-29,4.925-29,11s6.492,11,14.5,11a19.225,19.225,0,0,0,2.014-.105A24.116,24.116,0,0,0-5,24,8.509,8.509,0,0,1-8.219,20.917Z"/>
        <path d="M -7.02176 23.17086 C -7.58751 22.6585 -8.18609 21.99036 -8.65442 21.1634 L -8.94531 20.64976 L -8.39082 20.44732 C -6.04701 19.59162 -4.068 18.26395 -2.66777 16.60785 C -1.2496 14.93054 -0.5 12.99131 -0.5 11 C -0.5 5.21019 -6.78033 0.5 -14.5 0.5 C -22.21947 0.5 -28.5 5.21019 -28.5 11 C -28.5 16.78941 -22.21947 21.4996 -14.5 21.4996 C -13.84377 21.4996 -13.18369 21.46509 -12.538 21.39703 L -12.38847 21.38127 L -12.25505 21.4506 C -10.53971 22.34189 -8.50693 22.87302 -7.02176 23.17086 M -5 24 C -5 24 -9.24991 23.57554 -12.48559 21.89428 C -13.14373 21.96365 -13.81658 22 -14.5 22 C -22.5081 22 -29 17.0748 -29 11 C -29 4.9248 -22.5081 0 -14.5 0 C -6.4917 0 0 4.9248 0 11 C 0 15.36806 -3.35609 19.14147 -8.21935 20.917 C -7.0554 22.97225 -5 24 -5 24 Z" fill="rgba(255,255,255,0.3)"/>
      </g>

      <g class="dots-group" transform="translate(8 9)" fill="#ffffff">
        <circle class="dot" cx="2.5" cy="2.5" r="2.5"/>
        <circle class="dot" cx="13.5" cy="2.5" r="2.5"/>
      </g>
    </g>
  </g>
</svg>
