<svg xmlns="http://www.w3.org/2000/svg" xmlns:xlink="http://www.w3.org/1999/xlink" width="500" zoomAndPan="magnify" viewBox="0 0 375 374.999991" height="500" preserveAspectRatio="xMidYMid meet" version="1.0"><defs><clipPath id="42290bf13d"><path d="M 9 21.339844 L 366 21.339844 L 366 353.589844 L 9 353.589844 Z M 9 21.339844 " clip-rule="nonzero"/></clipPath></defs><g clip-path="url(#42290bf13d)"><path fill="#ffffff" d="M 187.5 163.886719 C 167.808594 163.886719 151.863281 179.832031 151.863281 199.523438 C 151.863281 219.210938 167.808594 235.160156 187.5 235.160156 C 207.1875 235.160156 223.132812 219.210938 223.132812 199.523438 C 223.132812 179.832031 207.1875 163.886719 187.5 163.886719 Z M 294.40625 199.523438 C 294.40625 140.457031 246.566406 92.613281 187.5 92.613281 C 128.429688 92.613281 80.589844 140.457031 80.589844 199.523438 C 80.589844 239.078125 102.058594 273.46875 133.953125 292 L 151.949219 260.996094 C 130.660156 248.613281 116.226562 225.894531 116.226562 199.523438 C 116.226562 160.144531 148.121094 128.25 187.5 128.25 C 226.875 128.25 258.769531 160.144531 258.769531 199.523438 C 258.769531 225.894531 244.339844 248.613281 223.046875 260.90625 L 241.042969 291.910156 C 272.9375 273.46875 294.40625 239.078125 294.40625 199.523438 Z M 187.5 21.339844 C 89.054688 21.339844 9.316406 101.078125 9.316406 199.523438 C 9.316406 265.359375 45.132812 322.734375 98.316406 353.5625 L 116.136719 322.734375 C 73.640625 298.144531 44.953125 252.175781 44.953125 199.523438 C 44.953125 120.765625 108.742188 56.976562 187.5 56.976562 C 266.253906 56.976562 330.042969 120.765625 330.042969 199.523438 C 330.042969 252.175781 301.355469 298.144531 258.859375 322.824219 L 276.679688 353.648438 C 329.863281 322.734375 365.679688 265.359375 365.679688 199.523438 C 365.679688 101.078125 285.855469 21.339844 187.5 21.339844 Z M 187.5 21.339844 " fill-opacity="1" fill-rule="nonzero"/></g></svg>