<svg width="256px" height="256px" viewBox="0 0 48 48" xmlns="http://www.w3.org/2000/svg" fill="#000000">
  <style>
    .pulse { transform-box: fill-box; transform-origin: 50% 50%; }
    @keyframes slowPulse {
      0%   { transform: scale(0.88); opacity: 0.3; }
      50%  { transform: scale(1.08); opacity: 1; }
      100% { transform: scale(0.88); opacity: 0.3; }
    }
    .pulse--slow { animation: slowPulse 4.8s ease-in-out infinite; }
    .d1 { animation-delay: 0s; }
    .d2 { animation-delay: 1.2s; }
  </style>

  <defs>
    <linearGradient id="linear-gradient" x1="0.5" x2="0.5" y2="1" gradientUnits="objectBoundingBox">
      <stop offset="0" stop-color="#00ff3f"/>
      <stop offset="1" stop-color="#00b349"/>
    </linearGradient>
    <linearGradient id="linear-gradient-2" x1="0.5" x2="0.5" y2="1" gradientUnits="objectBoundingBox">
      <stop offset="0.001" stop-color="#6eff79" stop-opacity="0.161"/>
      <stop offset="1" stop-color="#14e11b" stop-opacity="0.161"/>
    </linearGradient>
    <clipPath id="clip-Like">
      <rect width="48" height="48"/>
    </clipPath>
  </defs>

  <g id="Like" clip-path="url(#clip-Like)">
    <rect width="48" height="48" fill="rgba(255,255,255,0)"/>
    <g id="Like-2" transform="translate(5 9)">
      <g id="Icon" transform="translate(10 5)" class="pulse pulse--slow d1" fill="url(#linear-gradient)">
        <path d="M14.01,26S0,15.918,0,7.918A7.683,7.683,0,0,1,7.4,0,6.933,6.933,0,0,1,14.01,3.918,6.951,6.951,0,0,1,20.628,0C24.721,0,27.989,3.606,28,7.962,28.02,15.918,14.01,26,14.01,26Z"/>
      </g>
      <g id="Icon-2" class="pulse pulse--slow d2" fill="url(#linear-gradient-2)">
        <path d="M14.01,26S0,15.918,0,7.918A7.683,7.683,0,0,1,7.4,0,6.933,6.933,0,0,1,14.01,3.918,6.951,6.951,0,0,1,20.628,0C24.721,0,27.989,3.606,28,7.962,28.02,15.918,14.01,26,14.01,26Z"/>
      </g>
    </g>
  </g>
</svg>
