<svg xmlns="http://www.w3.org/2000/svg" xmlns:xlink="http://www.w3.org/1999/xlink" width="250" zoomAndPan="magnify" viewBox="0 0 187.5 187.499992" height="250" preserveAspectRatio="xMidYMid meet" version="1.0"><defs><clipPath id="24516a490a"><path d="M 2 23 L 185 23 L 185 164.488281 L 2 164.488281 Z M 2 23 " clip-rule="nonzero"/></clipPath></defs><g clip-path="url(#24516a490a)"><path fill="#00b300" d="M 180.054688 28.179688 C 174.246094 22.367188 164.828125 22.367188 159.019531 28.179688 L 64.644531 122.550781 L 27.976562 85.886719 C 22.167969 80.074219 12.746094 80.074219 6.9375 85.886719 C 1.128906 91.695312 1.128906 101.113281 6.9375 106.925781 L 64.644531 164.632812 L 75.164062 154.113281 L 180.054688 49.21875 C 185.867188 43.410156 185.867188 33.988281 180.054688 28.179688 " fill-opacity="1" fill-rule="nonzero"/></g><path fill="#00e600" d="M 173.394531 27.730469 C 168.035156 22.367188 159.339844 22.367188 153.976562 27.730469 L 66.867188 114.839844 L 33.023438 80.996094 C 27.660156 75.632812 18.964844 75.632812 13.601562 80.996094 C 8.242188 86.359375 8.242188 95.054688 13.601562 100.417969 L 57.15625 143.96875 L 66.867188 153.679688 L 173.394531 47.152344 C 178.757812 41.789062 178.757812 33.09375 173.394531 27.730469 " fill-opacity="1" fill-rule="nonzero"/></svg>