<!DOCTYPE svg PUBLIC "-//W3C//DTD SVG 1.1//EN" "http://www.w3.org/Graphics/SVG/1.1/DTD/svg11.dtd">
<!-- Uploaded to: SVG Repo, www.svgrepo.com, Transformed by: SVG Repo Mixer Tools -->
<svg fill="#d000ff" height="256px" width="256px" version="1.1" id="Layer_1" xmlns="http://www.w3.org/2000/svg" xmlns:xlink="http://www.w3.org/1999/xlink" viewBox="0 0 367.14 367.14" xml:space="preserve" stroke="#d000ff">
<g id="SVGRepo_bgCarrier" stroke-width="0"/>
<g id="SVGRepo_tracerCarrier" stroke-linecap="round" stroke-linejoin="round"/>
<g id="SVGRepo_iconCarrier"> <path d="M185.262,1.694c-34.777,0-68.584,9.851-97.768,28.488C59.1,48.315,36.318,73.884,21.613,104.126l26.979,13.119 c25.661-52.77,78.03-85.551,136.67-85.551c83.743,0,151.874,68.13,151.874,151.874s-68.131,151.874-151.874,151.874 c-49.847,0-96.44-24.9-124.571-65.042l53.219-52.964H0v113.365l39.14-38.953c13.024,17.561,29.147,32.731,47.731,44.706 c29.33,18.898,63.353,28.888,98.391,28.888c100.286,0,181.874-81.588,181.874-181.874S285.548,1.694,185.262,1.694z"/> </g>
</svg>