<svg xmlns="http://www.w3.org/2000/svg" xmlns:xlink="http://www.w3.org/1999/xlink" width="1000" zoomAndPan="magnify" viewBox="0 0 750 749.999995" height="1000" preserveAspectRatio="xMidYMid meet" version="1.0"><defs><clipPath id="46df6af2fa"><path d="M 100.066406 100.066406 L 649.816406 100.066406 L 649.816406 649.816406 L 100.066406 649.816406 Z M 100.066406 100.066406 " clip-rule="nonzero"/></clipPath></defs><g clip-path="url(#46df6af2fa)"><path fill="#26a17b" d="M 649.816406 374.941406 C 649.816406 379.441406 649.707031 383.9375 649.484375 388.429688 C 649.265625 392.921875 648.933594 397.40625 648.492188 401.882812 C 648.050781 406.359375 647.5 410.824219 646.839844 415.273438 C 646.179688 419.722656 645.414062 424.15625 644.535156 428.566406 C 643.65625 432.980469 642.671875 437.367188 641.578125 441.730469 C 640.484375 446.09375 639.285156 450.429688 637.980469 454.734375 C 636.675781 459.039062 635.265625 463.308594 633.75 467.542969 C 632.234375 471.78125 630.613281 475.976562 628.894531 480.132812 C 627.171875 484.289062 625.347656 488.398438 623.425781 492.464844 C 621.503906 496.53125 619.480469 500.550781 617.359375 504.515625 C 615.238281 508.484375 613.023438 512.398438 610.710938 516.253906 C 608.398438 520.113281 605.992188 523.914062 603.492188 527.652344 C 600.992188 531.394531 598.402344 535.070312 595.722656 538.683594 C 593.042969 542.296875 590.277344 545.84375 587.421875 549.320312 C 584.570312 552.796875 581.632812 556.203125 578.609375 559.535156 C 575.589844 562.871094 572.488281 566.125 569.308594 569.308594 C 566.125 572.488281 562.871094 575.589844 559.535156 578.609375 C 556.203125 581.632812 552.796875 584.570312 549.320312 587.421875 C 545.84375 590.277344 542.296875 593.042969 538.683594 595.722656 C 535.070312 598.402344 531.394531 600.992188 527.652344 603.492188 C 523.914062 605.992188 520.113281 608.398438 516.253906 610.710938 C 512.398438 613.023438 508.484375 615.238281 504.515625 617.359375 C 500.550781 619.480469 496.53125 621.503906 492.464844 623.425781 C 488.398438 625.347656 484.289062 627.171875 480.132812 628.894531 C 475.976562 630.613281 471.78125 632.234375 467.542969 633.75 C 463.308594 635.265625 459.039062 636.675781 454.734375 637.980469 C 450.429688 639.285156 446.09375 640.484375 441.730469 641.578125 C 437.367188 642.671875 432.980469 643.65625 428.566406 644.535156 C 424.15625 645.414062 419.722656 646.179688 415.273438 646.839844 C 410.824219 647.5 406.359375 648.050781 401.882812 648.492188 C 397.40625 648.933594 392.921875 649.265625 388.429688 649.484375 C 383.9375 649.707031 379.441406 649.816406 374.941406 649.816406 C 370.441406 649.816406 365.945312 649.707031 361.453125 649.484375 C 356.960938 649.265625 352.476562 648.933594 348 648.492188 C 343.523438 648.050781 339.058594 647.5 334.609375 646.839844 C 330.160156 646.179688 325.726562 645.414062 321.316406 644.535156 C 316.902344 643.65625 312.515625 642.671875 308.152344 641.578125 C 303.789062 640.484375 299.453125 639.285156 295.148438 637.980469 C 290.84375 636.675781 286.574219 635.265625 282.339844 633.75 C 278.101562 632.234375 273.90625 630.613281 269.75 628.894531 C 265.59375 627.171875 261.484375 625.347656 257.417969 623.425781 C 253.351562 621.503906 249.332031 619.480469 245.367188 617.359375 C 241.398438 615.238281 237.484375 613.023438 233.628906 610.710938 C 229.769531 608.398438 225.96875 605.992188 222.230469 603.492188 C 218.488281 600.992188 214.8125 598.402344 211.199219 595.722656 C 207.585938 593.042969 204.039062 590.277344 200.5625 587.421875 C 197.085938 584.570312 193.679688 581.632812 190.347656 578.609375 C 187.011719 575.589844 183.757812 572.488281 180.574219 569.308594 C 177.394531 566.125 174.292969 562.871094 171.273438 559.535156 C 168.25 556.203125 165.3125 552.796875 162.460938 549.320312 C 159.605469 545.84375 156.839844 542.296875 154.160156 538.683594 C 151.480469 535.070312 148.890625 531.394531 146.390625 527.652344 C 143.890625 523.914062 141.484375 520.113281 139.171875 516.253906 C 136.859375 512.398438 134.644531 508.484375 132.523438 504.515625 C 130.402344 500.550781 128.378906 496.53125 126.457031 492.464844 C 124.535156 488.398438 122.710938 484.289062 120.988281 480.132812 C 119.269531 475.976562 117.648438 471.78125 116.132812 467.542969 C 114.617188 463.308594 113.207031 459.039062 111.902344 454.734375 C 110.597656 450.429688 109.398438 446.09375 108.304688 441.730469 C 107.210938 437.367188 106.226562 432.980469 105.347656 428.566406 C 104.46875 424.15625 103.703125 419.722656 103.042969 415.273438 C 102.382812 410.824219 101.832031 406.359375 101.390625 401.882812 C 100.949219 397.40625 100.617188 392.921875 100.398438 388.429688 C 100.175781 383.9375 100.066406 379.441406 100.066406 374.941406 C 100.066406 370.441406 100.175781 365.945312 100.398438 361.453125 C 100.617188 356.960938 100.949219 352.476562 101.390625 348 C 101.832031 343.523438 102.382812 339.058594 103.042969 334.609375 C 103.703125 330.160156 104.46875 325.726562 105.347656 321.316406 C 106.226562 316.902344 107.210938 312.515625 108.304688 308.152344 C 109.398438 303.789062 110.597656 299.453125 111.902344 295.148438 C 113.207031 290.84375 114.617188 286.574219 116.132812 282.339844 C 117.648438 278.101562 119.269531 273.90625 120.988281 269.75 C 122.710938 265.59375 124.535156 261.484375 126.457031 257.417969 C 128.378906 253.351562 130.402344 249.332031 132.523438 245.367188 C 134.644531 241.398438 136.859375 237.484375 139.171875 233.628906 C 141.484375 229.769531 143.890625 225.96875 146.390625 222.230469 C 148.890625 218.488281 151.480469 214.8125 154.160156 211.199219 C 156.839844 207.585938 159.605469 204.039062 162.460938 200.5625 C 165.3125 197.085938 168.25 193.679688 171.273438 190.347656 C 174.292969 187.011719 177.394531 183.757812 180.574219 180.574219 C 183.757812 177.394531 187.011719 174.292969 190.347656 171.273438 C 193.679688 168.25 197.085938 165.3125 200.5625 162.460938 C 204.039062 159.605469 207.585938 156.839844 211.199219 154.160156 C 214.8125 151.480469 218.488281 148.890625 222.230469 146.390625 C 225.96875 143.890625 229.769531 141.484375 233.628906 139.171875 C 237.484375 136.859375 241.398438 134.644531 245.367188 132.523438 C 249.332031 130.402344 253.351562 128.378906 257.417969 126.457031 C 261.484375 124.535156 265.59375 122.710938 269.75 120.988281 C 273.90625 119.269531 278.101562 117.648438 282.339844 116.132812 C 286.574219 114.617188 290.84375 113.207031 295.148438 111.902344 C 299.453125 110.597656 303.789062 109.398438 308.152344 108.304688 C 312.515625 107.210938 316.902344 106.226562 321.316406 105.347656 C 325.726562 104.46875 330.160156 103.703125 334.609375 103.042969 C 339.058594 102.382812 343.523438 101.832031 348 101.390625 C 352.476562 100.949219 356.960938 100.617188 361.453125 100.398438 C 365.945312 100.175781 370.441406 100.066406 374.941406 100.066406 C 379.441406 100.066406 383.9375 100.175781 388.429688 100.398438 C 392.921875 100.617188 397.40625 100.949219 401.882812 101.390625 C 406.359375 101.832031 410.824219 102.382812 415.273438 103.042969 C 419.722656 103.703125 424.15625 104.46875 428.566406 105.347656 C 432.980469 106.226562 437.367188 107.210938 441.730469 108.304688 C 446.09375 109.398438 450.429688 110.597656 454.734375 111.902344 C 459.039062 113.207031 463.308594 114.617188 467.542969 116.132812 C 471.78125 117.648438 475.976562 119.269531 480.132812 120.988281 C 484.289062 122.710938 488.398438 124.535156 492.464844 126.457031 C 496.53125 128.378906 500.550781 130.402344 504.515625 132.523438 C 508.484375 134.644531 512.398438 136.859375 516.253906 139.171875 C 520.113281 141.484375 523.914062 143.890625 527.652344 146.390625 C 531.394531 148.890625 535.070312 151.480469 538.683594 154.160156 C 542.296875 156.839844 545.84375 159.605469 549.320312 162.460938 C 552.796875 165.3125 556.203125 168.25 559.535156 171.273438 C 562.871094 174.292969 566.125 177.394531 569.308594 180.574219 C 572.488281 183.757812 575.589844 187.011719 578.609375 190.347656 C 581.632812 193.679688 584.570312 197.085938 587.421875 200.5625 C 590.277344 204.039062 593.042969 207.585938 595.722656 211.199219 C 598.402344 214.8125 600.992188 218.488281 603.492188 222.230469 C 605.992188 225.96875 608.398438 229.769531 610.710938 233.628906 C 613.023438 237.484375 615.238281 241.398438 617.359375 245.367188 C 619.480469 249.332031 621.503906 253.351562 623.425781 257.417969 C 625.347656 261.484375 627.171875 265.59375 628.894531 269.75 C 630.613281 273.90625 632.234375 278.101562 633.75 282.339844 C 635.265625 286.574219 636.675781 290.84375 637.980469 295.148438 C 639.285156 299.453125 640.484375 303.789062 641.578125 308.152344 C 642.671875 312.515625 643.65625 316.902344 644.535156 321.316406 C 645.414062 325.726562 646.179688 330.160156 646.839844 334.609375 C 647.5 339.058594 648.050781 343.523438 648.492188 348 C 648.933594 352.476562 649.265625 356.960938 649.484375 361.453125 C 649.707031 365.945312 649.816406 370.441406 649.816406 374.941406 Z M 649.816406 374.941406 " fill-opacity="1" fill-rule="nonzero"/></g><path fill="#ffffff" d="M 407.960938 398.699219 L 407.960938 398.667969 C 406.070312 398.804688 396.332031 399.386719 374.597656 399.386719 C 357.246094 399.386719 345.03125 398.871094 340.738281 398.667969 L 340.738281 398.71875 C 273.941406 395.78125 224.085938 384.148438 224.085938 370.234375 C 224.085938 356.335938 273.941406 344.707031 340.738281 341.714844 L 340.738281 387.140625 C 345.101562 387.449219 357.605469 388.1875 374.890625 388.1875 C 395.625 388.1875 406.019531 387.328125 407.960938 387.15625 L 407.960938 341.75 C 474.617188 344.722656 524.351562 356.351562 524.351562 370.234375 C 524.351562 384.148438 474.617188 395.746094 407.960938 398.699219 M 407.960938 337.027344 L 407.960938 296.378906 L 500.972656 296.378906 L 500.972656 234.394531 L 247.726562 234.394531 L 247.726562 296.378906 L 340.738281 296.378906 L 340.738281 337.007812 C 265.144531 340.480469 208.296875 355.460938 208.296875 373.394531 C 208.296875 391.332031 265.144531 406.292969 340.738281 409.78125 L 340.738281 540.039062 L 407.960938 540.039062 L 407.960938 409.746094 C 483.429688 406.277344 540.140625 391.3125 540.140625 373.394531 C 540.140625 355.476562 483.429688 340.511719 407.960938 337.027344 " fill-opacity="1" fill-rule="evenodd"/></svg>